<svg width="24" height="24" viewBox="0 0 24 24" fill="none" xmlns="http://www.w3.org/2000/svg">
<path d="M18.9842 5.01582C18.0729 4.07231 16.9829 3.31974 15.7776 2.80201C14.5724 2.28428 13.2761 2.01177 11.9644 2.00037C10.6528 1.98897 9.35196 2.23892 8.13792 2.73563C6.92387 3.23233 5.82091 3.96585 4.89338 4.89338C3.96585 5.82091 3.23233 6.92387 2.73563 8.13792C2.23892 9.35196 1.98897 10.6528 2.00037 11.9644C2.01177 13.2761 2.28428 14.5724 2.80201 15.7776C3.31974 16.9829 4.07231 18.0729 5.01582 18.9842C5.92709 19.9277 7.01714 20.6803 8.22237 21.198C9.4276 21.7157 10.7239 21.9882 12.0355 21.9996C13.3472 22.011 14.648 21.7611 15.8621 21.2644C17.0761 20.7677 18.1791 20.0342 19.1066 19.1066C20.0342 18.1791 20.7677 17.0761 21.2644 15.8621C21.7611 14.648 22.011 13.3472 21.9996 12.0355C21.9882 10.7239 21.7157 9.4276 21.198 8.22237C20.6803 7.01714 19.9277 5.92709 18.9842 5.01582Z" stroke="#BE1E2D" stroke-width="1.6"/>
<path d="M8 12.5L11.188 15L16 10" stroke="#BE1E2D" stroke-width="1.6" stroke-linecap="round" stroke-linejoin="round"/>
</svg>
