<svg xmlns="http://www.w3.org/2000/svg" width="24" height="24" fill="none">
    <path stroke="#fff" stroke-linecap="round" stroke-linejoin="round" stroke-miterlimit="10" stroke-width="0.75" d="M13.44 2C18.16 2 22 5.84 22 10.562m-8.56-6.116a6.12 6.12 0 0 1 6.115 6.116m-6.115-3.67a3.673 3.673 0 0 1 3.669 3.67M13.44 9.339c.675 0 1.223.547 1.223 1.223m-7.045 2.843a16 16 0 0 1-.733-1.049c-.302-.474-.21-1.101.186-1.498l1.38-1.38a.76.76 0 0 0 0-1.076L5.205 5.153a.76.76 0 0 0-1.076 0l-.822.822c-1.334 1.334-1.694 3.37-.857 5.061 1.49 3.009 4.556 7.62 10.462 10.517a4.43 4.43 0 0 0 5.076-.857l.84-.84a.76.76 0 0 0 0-1.076L15.58 15.53a.76.76 0 0 0-1.075 0l-1.38 1.38c-.398.398-1.025.49-1.499.187a16 16 0 0 1-1.472-1.067m-.942-1.236a.407.407 0 1 1-.813 0 .407.407 0 0 1 .813 0"></path></svg>
