<svg xmlns="http://www.w3.org/2000/svg" width="24" height="24" fill="none"><path fill="#fff" d="M7.33 5.333a.333.333 0 0 0 .332.334h8.66a.333.333 0 1 0 0-.667h-8.66a.333.333 0 0 0-.333.333M12.659 11.667a.333.333 0 0 0 0-.667H7.662a.333.333 0 1 0 0 .667z"></path><path fill="#fff" d="m20.786 8.61-1.373-.897 2.142-2.146a1.28 1.28 0 0 0-.368-2.163 1.28 1.28 0 0 0-1.437.36l-.763.766V3a1 1 0 0 0-1-1h-4.662a.333.333 0 1 0 0 .667h4.663A.333.333 0 0 1 18.32 3v2.197l-1.845 1.846A.3.3 0 0 0 16.323 7h-8.66a.333.333 0 0 0 0 .667h8.19l-1.1 1.096a.6.6 0 0 0-.096.237H7.662a.333.333 0 0 0 0 .667h6.755l-.41 1.226a.334.334 0 0 0 .424.44l1.998-.666a.7.7 0 0 0 .13-.08l1.762-1.784v3.267l-3.42 3.05-.983-.84a2.903 2.903 0 0 0-3.85 0l-.967.853-3.437-3.063V3a.333.333 0 0 1 .333-.333h4.663a.333.333 0 0 0 0-.667H5.997a1 1 0 0 0-1 1v4.433L3.18 8.627A3 3 0 0 0 2 11.017V19a3.02 3.02 0 0 0 3.014 3h13.973a3.016 3.016 0 0 0 2.998-3v-7.983a3 3 0 0 0-1.2-2.407m-.563-4.373c.69-.694 1.552.176.86.863l-.097.097-.863-.864zm-.57.566.863.864-4.193 4.196L15.46 9zM14.85 10.47l.287-.857.57.57zm4.137-2.24 1.412.923c.212.163.395.36.54.584l-1.952 1.74zm-15.422.94 1.433-.94v3.247l-1.955-1.74c.14-.218.317-.41.522-.567M2.666 19v-7.983q0-.329.093-.644l2.332 2.084 3.504 3.12-5.45 4.823a2.33 2.33 0 0 1-.479-1.4m2.348 2.333a2.33 2.33 0 0 1-1.392-.463l6.885-6.09a2.244 2.244 0 0 1 2.974 0l6.995 6a2.33 2.33 0 0 1-1.489.553zM21.335 19c0 .46-.135.91-.39 1.293l-5.535-4.736 5.816-5.184q.09.316.093.644z"></path><path fill="#fff" d="M11.993 2.667a.333.333 0 1 0 0-.667.333.333 0 0 0 0 .667"></path></svg>
